%TF.GenerationSoftware,KiCad,Pcbnew,7.0.5*%
%TF.CreationDate,2024-06-04T21:33:16-04:00*%
%TF.ProjectId,Prueba kicad,50727565-6261-4206-9b69-6361642e6b69,rev?*%
%TF.SameCoordinates,Original*%
%TF.FileFunction,Soldermask,Top*%
%TF.FilePolarity,Negative*%
%FSLAX46Y46*%
G04 Gerber Fmt 4.6, Leading zero omitted, Abs format (unit mm)*
G04 Created by KiCad (PCBNEW 7.0.5) date 2024-06-04 21:33:16*
%MOMM*%
%LPD*%
G01*
G04 APERTURE LIST*
G04 Aperture macros list*
%AMRoundRect*
0 Rectangle with rounded corners*
0 $1 Rounding radius*
0 $2 $3 $4 $5 $6 $7 $8 $9 X,Y pos of 4 corners*
0 Add a 4 corners polygon primitive as box body*
4,1,4,$2,$3,$4,$5,$6,$7,$8,$9,$2,$3,0*
0 Add four circle primitives for the rounded corners*
1,1,$1+$1,$2,$3*
1,1,$1+$1,$4,$5*
1,1,$1+$1,$6,$7*
1,1,$1+$1,$8,$9*
0 Add four rect primitives between the rounded corners*
20,1,$1+$1,$2,$3,$4,$5,0*
20,1,$1+$1,$4,$5,$6,$7,0*
20,1,$1+$1,$6,$7,$8,$9,0*
20,1,$1+$1,$8,$9,$2,$3,0*%
G04 Aperture macros list end*
%ADD10RoundRect,0.135000X-0.135000X-0.185000X0.135000X-0.185000X0.135000X0.185000X-0.135000X0.185000X0*%
%ADD11RoundRect,0.140000X-0.140000X-0.170000X0.140000X-0.170000X0.140000X0.170000X-0.140000X0.170000X0*%
%ADD12RoundRect,0.140000X0.170000X-0.140000X0.170000X0.140000X-0.170000X0.140000X-0.170000X-0.140000X0*%
%ADD13R,1.800000X1.000000*%
%ADD14RoundRect,0.147500X0.172500X-0.147500X0.172500X0.147500X-0.172500X0.147500X-0.172500X-0.147500X0*%
%ADD15RoundRect,0.140000X-0.170000X0.140000X-0.170000X-0.140000X0.170000X-0.140000X0.170000X0.140000X0*%
%ADD16RoundRect,0.147500X0.147500X0.172500X-0.147500X0.172500X-0.147500X-0.172500X0.147500X-0.172500X0*%
%ADD17R,2.500000X2.500000*%
%ADD18RoundRect,0.062500X0.350000X-0.062500X0.350000X0.062500X-0.350000X0.062500X-0.350000X-0.062500X0*%
%ADD19RoundRect,0.062500X0.062500X-0.350000X0.062500X0.350000X-0.062500X0.350000X-0.062500X-0.350000X0*%
%ADD20RoundRect,0.140000X0.140000X0.170000X-0.140000X0.170000X-0.140000X-0.170000X0.140000X-0.170000X0*%
%ADD21RoundRect,0.135000X0.135000X0.185000X-0.135000X0.185000X-0.135000X-0.185000X0.135000X-0.185000X0*%
%ADD22O,0.900000X1.400000*%
%ADD23RoundRect,0.225000X0.225000X0.475000X-0.225000X0.475000X-0.225000X-0.475000X0.225000X-0.475000X0*%
G04 APERTURE END LIST*
D10*
%TO.C,R2*%
X124970000Y-100878000D03*
X123950000Y-100878000D03*
%TD*%
D11*
%TO.C,C11*%
X120731000Y-96149000D03*
X119771000Y-96149000D03*
%TD*%
D12*
%TO.C,C5*%
X124206000Y-98394000D03*
X124206000Y-99354000D03*
%TD*%
%TO.C,C7*%
X122283000Y-96403000D03*
X122283000Y-97363000D03*
%TD*%
D13*
%TO.C,Y1*%
X124714000Y-104902000D03*
X124714000Y-102402000D03*
%TD*%
D11*
%TO.C,C10*%
X120787000Y-97419000D03*
X119827000Y-97419000D03*
%TD*%
D12*
%TO.C,C6*%
X125476000Y-98394000D03*
X125476000Y-99354000D03*
%TD*%
D14*
%TO.C,L1*%
X120787000Y-98989000D03*
X120787000Y-99959000D03*
%TD*%
D11*
%TO.C,C4*%
X124670000Y-106476000D03*
X123710000Y-106476000D03*
%TD*%
D14*
%TO.C,L4*%
X118501000Y-94879000D03*
X118501000Y-95849000D03*
%TD*%
D15*
%TO.C,C9*%
X118501000Y-98379000D03*
X118501000Y-97419000D03*
%TD*%
D11*
%TO.C,C2*%
X116332000Y-105410000D03*
X115372000Y-105410000D03*
%TD*%
D14*
%TO.C,L2*%
X122057000Y-98989000D03*
X122057000Y-99959000D03*
%TD*%
D11*
%TO.C,C12*%
X120731000Y-94879000D03*
X119771000Y-94879000D03*
%TD*%
D12*
%TO.C,C8*%
X123581000Y-96403000D03*
X123581000Y-97363000D03*
%TD*%
D16*
%TO.C,L3*%
X118501000Y-99705000D03*
X119471000Y-99705000D03*
%TD*%
D17*
%TO.C,U1*%
X120279000Y-103515000D03*
D18*
X118341500Y-104515000D03*
X118341500Y-104015000D03*
X118341500Y-103515000D03*
X118341500Y-103015000D03*
X118341500Y-102515000D03*
D19*
X119279000Y-101577500D03*
X119779000Y-101577500D03*
X120279000Y-101577500D03*
X120779000Y-101577500D03*
X121279000Y-101577500D03*
D18*
X122216500Y-102515000D03*
X122216500Y-103015000D03*
X122216500Y-103515000D03*
X122216500Y-104015000D03*
X122216500Y-104515000D03*
D19*
X121279000Y-105452500D03*
X120779000Y-105452500D03*
X120279000Y-105452500D03*
X119779000Y-105452500D03*
X119279000Y-105452500D03*
%TD*%
D20*
%TO.C,C3*%
X115372000Y-103886000D03*
X116332000Y-103886000D03*
%TD*%
D21*
%TO.C,R1*%
X115312000Y-102362000D03*
X116332000Y-102362000D03*
%TD*%
D22*
%TO.C,J1*%
X116452000Y-109728000D03*
X117702000Y-109728000D03*
X118952000Y-109728000D03*
X120202000Y-109728000D03*
X121452000Y-109728000D03*
X122702000Y-109728000D03*
X123952000Y-109728000D03*
D23*
X125202000Y-109728000D03*
%TD*%
M02*
