%TF.GenerationSoftware,KiCad,Pcbnew,7.0.5*%
%TF.CreationDate,2024-06-04T21:33:16-04:00*%
%TF.ProjectId,Prueba kicad,50727565-6261-4206-9b69-6361642e6b69,rev?*%
%TF.SameCoordinates,Original*%
%TF.FileFunction,Copper,L2,Bot*%
%TF.FilePolarity,Positive*%
%FSLAX46Y46*%
G04 Gerber Fmt 4.6, Leading zero omitted, Abs format (unit mm)*
G04 Created by KiCad (PCBNEW 7.0.5) date 2024-06-04 21:33:16*
%MOMM*%
%LPD*%
G01*
G04 APERTURE LIST*
G04 Aperture macros list*
%AMRoundRect*
0 Rectangle with rounded corners*
0 $1 Rounding radius*
0 $2 $3 $4 $5 $6 $7 $8 $9 X,Y pos of 4 corners*
0 Add a 4 corners polygon primitive as box body*
4,1,4,$2,$3,$4,$5,$6,$7,$8,$9,$2,$3,0*
0 Add four circle primitives for the rounded corners*
1,1,$1+$1,$2,$3*
1,1,$1+$1,$4,$5*
1,1,$1+$1,$6,$7*
1,1,$1+$1,$8,$9*
0 Add four rect primitives between the rounded corners*
20,1,$1+$1,$2,$3,$4,$5,0*
20,1,$1+$1,$4,$5,$6,$7,0*
20,1,$1+$1,$6,$7,$8,$9,0*
20,1,$1+$1,$8,$9,$2,$3,0*%
G04 Aperture macros list end*
%TA.AperFunction,ComponentPad*%
%ADD10R,0.900000X0.500000*%
%TD*%
%TA.AperFunction,ComponentPad*%
%ADD11O,0.900000X1.400000*%
%TD*%
%TA.AperFunction,ComponentPad*%
%ADD12RoundRect,0.225000X0.225000X0.475000X-0.225000X0.475000X-0.225000X-0.475000X0.225000X-0.475000X0*%
%TD*%
%TA.AperFunction,ViaPad*%
%ADD13C,0.800000*%
%TD*%
%TA.AperFunction,ViaPad*%
%ADD14C,0.200000*%
%TD*%
%TA.AperFunction,ViaPad*%
%ADD15C,0.500000*%
%TD*%
%TA.AperFunction,ViaPad*%
%ADD16C,0.400000*%
%TD*%
%TA.AperFunction,Conductor*%
%ADD17C,0.100000*%
%TD*%
%TA.AperFunction,Conductor*%
%ADD18C,0.200000*%
%TD*%
G04 APERTURE END LIST*
D10*
%TO.P,AE1,2*%
%TO.N,N/C*%
X114962500Y-93640000D03*
%TD*%
D11*
%TO.P,J1,8,Pin_8*%
%TO.N,GND*%
X116452000Y-109728000D03*
%TO.P,J1,7,Pin_7*%
%TO.N,Net-(J1-Pin_7)*%
X117702000Y-109728000D03*
%TO.P,J1,6,Pin_6*%
%TO.N,Net-(J1-Pin_6)*%
X118952000Y-109728000D03*
%TO.P,J1,5,Pin_5*%
%TO.N,Net-(J1-Pin_5)*%
X120202000Y-109728000D03*
%TO.P,J1,4,Pin_4*%
%TO.N,Net-(J1-Pin_4)*%
X121452000Y-109728000D03*
%TO.P,J1,3,Pin_3*%
%TO.N,Net-(J1-Pin_3)*%
X122702000Y-109728000D03*
%TO.P,J1,2,Pin_2*%
%TO.N,Net-(J1-Pin_2)*%
X123952000Y-109728000D03*
D12*
%TO.P,J1,1,Pin_1*%
%TO.N,VDD*%
X125202000Y-109728000D03*
%TD*%
D13*
%TO.N,*%
X115824000Y-94742000D03*
X114046000Y-94742000D03*
X128778000Y-94742000D03*
D14*
%TO.N,VDD*%
X117348000Y-103632000D03*
D15*
X114554000Y-103632000D03*
%TO.N,GND*%
X117094000Y-100838000D03*
D16*
X117094000Y-103124000D03*
D14*
%TO.N,Net-(J1-Pin_3)*%
X122682000Y-107188000D03*
X122682000Y-108204000D03*
%TO.N,Net-(J1-Pin_7)*%
X122174000Y-106680000D03*
X118872000Y-106680000D03*
%TO.N,Net-(U1-ANT2)*%
X121920000Y-100584000D03*
X120142000Y-100584000D03*
%TD*%
D17*
%TO.N,VDD*%
X117348000Y-103632000D02*
X114554000Y-103632000D01*
D18*
%TO.N,GND*%
X117094000Y-103124000D02*
X117094000Y-100838000D01*
D17*
%TO.N,Net-(J1-Pin_3)*%
X122682000Y-108204000D02*
X122682000Y-107188000D01*
%TO.N,Net-(J1-Pin_7)*%
X122174000Y-106680000D02*
X118872000Y-106680000D01*
%TO.N,Net-(U1-ANT2)*%
X120142000Y-100584000D02*
X121920000Y-100584000D01*
%TD*%
%TA.AperFunction,Conductor*%
%TO.N,GND*%
G36*
X128040896Y-93999685D02*
G01*
X128086651Y-94052489D01*
X128096595Y-94121647D01*
X128067570Y-94185203D01*
X128066007Y-94186972D01*
X128045466Y-94209785D01*
X127950821Y-94373715D01*
X127950818Y-94373722D01*
X127892327Y-94553740D01*
X127892326Y-94553744D01*
X127872540Y-94742000D01*
X127892326Y-94930256D01*
X127892327Y-94930259D01*
X127950818Y-95110277D01*
X127950821Y-95110284D01*
X128045467Y-95274216D01*
X128172128Y-95414888D01*
X128172129Y-95414888D01*
X128325265Y-95526148D01*
X128325270Y-95526151D01*
X128498192Y-95603142D01*
X128498197Y-95603144D01*
X128683354Y-95642500D01*
X128683355Y-95642500D01*
X128872644Y-95642500D01*
X128872646Y-95642500D01*
X129057803Y-95603144D01*
X129230730Y-95526151D01*
X129383871Y-95414888D01*
X129510533Y-95274216D01*
X129562113Y-95184875D01*
X129612677Y-95136661D01*
X129681284Y-95123437D01*
X129746149Y-95149404D01*
X129786679Y-95206318D01*
X129793499Y-95246876D01*
X129793500Y-112397500D01*
X129773815Y-112464539D01*
X129721011Y-112510294D01*
X129669500Y-112521500D01*
X113408500Y-112521500D01*
X113341461Y-112501815D01*
X113295706Y-112449011D01*
X113284500Y-112397500D01*
X113284500Y-109978000D01*
X115502000Y-109978000D01*
X115502000Y-110026176D01*
X115516647Y-110170221D01*
X115574484Y-110354561D01*
X115574489Y-110354571D01*
X115668251Y-110523498D01*
X115668256Y-110523505D01*
X115794107Y-110670105D01*
X115946890Y-110788368D01*
X115946894Y-110788370D01*
X116120363Y-110873460D01*
X116202000Y-110894596D01*
X116202000Y-109978000D01*
X115502000Y-109978000D01*
X113284500Y-109978000D01*
X113284500Y-109699840D01*
X116148105Y-109699840D01*
X116158454Y-109811521D01*
X116208448Y-109911922D01*
X116291334Y-109987484D01*
X116395920Y-110028000D01*
X116479802Y-110028000D01*
X116562250Y-110012588D01*
X116657610Y-109953543D01*
X116702000Y-109894761D01*
X116702000Y-110898470D01*
X116872524Y-110835315D01*
X116872538Y-110835309D01*
X117012106Y-110748315D01*
X117079411Y-110729558D01*
X117146172Y-110750166D01*
X117153599Y-110755490D01*
X117196622Y-110788793D01*
X117196623Y-110788793D01*
X117196627Y-110788796D01*
X117370184Y-110873930D01*
X117370188Y-110873931D01*
X117370186Y-110873931D01*
X117557317Y-110922383D01*
X117557320Y-110922383D01*
X117557326Y-110922385D01*
X117750390Y-110932176D01*
X117941474Y-110902903D01*
X118122753Y-110835764D01*
X118262529Y-110748641D01*
X118329835Y-110729885D01*
X118396596Y-110750494D01*
X118404022Y-110755817D01*
X118446076Y-110788370D01*
X118446627Y-110788796D01*
X118620184Y-110873930D01*
X118620188Y-110873931D01*
X118620186Y-110873931D01*
X118807317Y-110922383D01*
X118807320Y-110922383D01*
X118807326Y-110922385D01*
X119000390Y-110932176D01*
X119191474Y-110902903D01*
X119372753Y-110835764D01*
X119512529Y-110748641D01*
X119579835Y-110729885D01*
X119646596Y-110750494D01*
X119654022Y-110755817D01*
X119696076Y-110788370D01*
X119696627Y-110788796D01*
X119870184Y-110873930D01*
X119870188Y-110873931D01*
X119870186Y-110873931D01*
X120057317Y-110922383D01*
X120057320Y-110922383D01*
X120057326Y-110922385D01*
X120250390Y-110932176D01*
X120441474Y-110902903D01*
X120622753Y-110835764D01*
X120762529Y-110748641D01*
X120829835Y-110729885D01*
X120896596Y-110750494D01*
X120904022Y-110755817D01*
X120946076Y-110788370D01*
X120946627Y-110788796D01*
X121120184Y-110873930D01*
X121120188Y-110873931D01*
X121120186Y-110873931D01*
X121307317Y-110922383D01*
X121307320Y-110922383D01*
X121307326Y-110922385D01*
X121500390Y-110932176D01*
X121691474Y-110902903D01*
X121872753Y-110835764D01*
X122012529Y-110748641D01*
X122079835Y-110729885D01*
X122146596Y-110750494D01*
X122154022Y-110755817D01*
X122196076Y-110788370D01*
X122196627Y-110788796D01*
X122370184Y-110873930D01*
X122370188Y-110873931D01*
X122370186Y-110873931D01*
X122557317Y-110922383D01*
X122557320Y-110922383D01*
X122557326Y-110922385D01*
X122750390Y-110932176D01*
X122941474Y-110902903D01*
X123122753Y-110835764D01*
X123262529Y-110748641D01*
X123329835Y-110729885D01*
X123396596Y-110750494D01*
X123404022Y-110755817D01*
X123446076Y-110788370D01*
X123446627Y-110788796D01*
X123620184Y-110873930D01*
X123620188Y-110873931D01*
X123620186Y-110873931D01*
X123807317Y-110922383D01*
X123807320Y-110922383D01*
X123807326Y-110922385D01*
X124000390Y-110932176D01*
X124191474Y-110902903D01*
X124372753Y-110835764D01*
X124430927Y-110799503D01*
X124498230Y-110780747D01*
X124561615Y-110799197D01*
X124668294Y-110864998D01*
X124668297Y-110864999D01*
X124668303Y-110865003D01*
X124829292Y-110918349D01*
X124928655Y-110928500D01*
X125475344Y-110928499D01*
X125475352Y-110928498D01*
X125475355Y-110928498D01*
X125535217Y-110922383D01*
X125574708Y-110918349D01*
X125735697Y-110865003D01*
X125880044Y-110775968D01*
X125999968Y-110656044D01*
X126089003Y-110511697D01*
X126142349Y-110350708D01*
X126152500Y-110251345D01*
X126152499Y-109204656D01*
X126142349Y-109105292D01*
X126089003Y-108944303D01*
X126088999Y-108944297D01*
X126088998Y-108944294D01*
X125999970Y-108799959D01*
X125999967Y-108799955D01*
X125880044Y-108680032D01*
X125880040Y-108680029D01*
X125735705Y-108591001D01*
X125735699Y-108590998D01*
X125735697Y-108590997D01*
X125708751Y-108582068D01*
X125574709Y-108537651D01*
X125475346Y-108527500D01*
X124928662Y-108527500D01*
X124928644Y-108527501D01*
X124829292Y-108537650D01*
X124829289Y-108537651D01*
X124668305Y-108590996D01*
X124668300Y-108590998D01*
X124564300Y-108655147D01*
X124496907Y-108673587D01*
X124444595Y-108660936D01*
X124283816Y-108582070D01*
X124283814Y-108582069D01*
X124283811Y-108582068D01*
X124283813Y-108582068D01*
X124096682Y-108533616D01*
X124096676Y-108533615D01*
X123967964Y-108527087D01*
X123903610Y-108523824D01*
X123903609Y-108523824D01*
X123903607Y-108523824D01*
X123712533Y-108553095D01*
X123712521Y-108553098D01*
X123531251Y-108620234D01*
X123531242Y-108620238D01*
X123391470Y-108707359D01*
X123324165Y-108726115D01*
X123257404Y-108705506D01*
X123249991Y-108700192D01*
X123227289Y-108682620D01*
X123186327Y-108626019D01*
X123182468Y-108556255D01*
X123202531Y-108513909D01*
X123202474Y-108513876D01*
X123202880Y-108513172D01*
X123204821Y-108509075D01*
X123206536Y-108506841D01*
X123267044Y-108360762D01*
X123287682Y-108204000D01*
X123267044Y-108047238D01*
X123241939Y-107986628D01*
X123232500Y-107939176D01*
X123232500Y-107452823D01*
X123241939Y-107405370D01*
X123267044Y-107344762D01*
X123287682Y-107188000D01*
X123267044Y-107031238D01*
X123206536Y-106885159D01*
X123110282Y-106759718D01*
X122984841Y-106663464D01*
X122838762Y-106602956D01*
X122838760Y-106602955D01*
X122831253Y-106599846D01*
X122832447Y-106596963D01*
X122785378Y-106568271D01*
X122764392Y-106529819D01*
X122762154Y-106530747D01*
X122759044Y-106523238D01*
X122698536Y-106377159D01*
X122602282Y-106251718D01*
X122476841Y-106155464D01*
X122414158Y-106129500D01*
X122330762Y-106094956D01*
X122330760Y-106094955D01*
X122174001Y-106074318D01*
X122173999Y-106074318D01*
X122017239Y-106094955D01*
X122017237Y-106094956D01*
X121956630Y-106120061D01*
X121909177Y-106129500D01*
X119136823Y-106129500D01*
X119089370Y-106120061D01*
X119028762Y-106094956D01*
X119028760Y-106094955D01*
X118872001Y-106074318D01*
X118871999Y-106074318D01*
X118715239Y-106094955D01*
X118715237Y-106094956D01*
X118569160Y-106155463D01*
X118443718Y-106251718D01*
X118347463Y-106377160D01*
X118286956Y-106523237D01*
X118286955Y-106523239D01*
X118266318Y-106679998D01*
X118266318Y-106680001D01*
X118286955Y-106836760D01*
X118286956Y-106836762D01*
X118347464Y-106982841D01*
X118443718Y-107108282D01*
X118569159Y-107204536D01*
X118715238Y-107265044D01*
X118760798Y-107271042D01*
X118871999Y-107285682D01*
X118872000Y-107285682D01*
X118872001Y-107285682D01*
X118924253Y-107278802D01*
X119028762Y-107265044D01*
X119089370Y-107239938D01*
X119136823Y-107230500D01*
X121909177Y-107230500D01*
X121956629Y-107239938D01*
X122017238Y-107265044D01*
X122017239Y-107265044D01*
X122024747Y-107268154D01*
X122023550Y-107271042D01*
X122070597Y-107299703D01*
X122091622Y-107338176D01*
X122093846Y-107337255D01*
X122122060Y-107405371D01*
X122131499Y-107452823D01*
X122131499Y-107939176D01*
X122122061Y-107986627D01*
X122096956Y-108047237D01*
X122096955Y-108047239D01*
X122076318Y-108203998D01*
X122076318Y-108204001D01*
X122096955Y-108360760D01*
X122096956Y-108360762D01*
X122157465Y-108506843D01*
X122157465Y-108506844D01*
X122170319Y-108523596D01*
X122195512Y-108588765D01*
X122181472Y-108657210D01*
X122132658Y-108707199D01*
X122064566Y-108722860D01*
X121998816Y-108699223D01*
X121996110Y-108697188D01*
X121957373Y-108667204D01*
X121783816Y-108582070D01*
X121783814Y-108582069D01*
X121783811Y-108582068D01*
X121783813Y-108582068D01*
X121596682Y-108533616D01*
X121596676Y-108533615D01*
X121467964Y-108527087D01*
X121403610Y-108523824D01*
X121403609Y-108523824D01*
X121403607Y-108523824D01*
X121212533Y-108553095D01*
X121212521Y-108553098D01*
X121031251Y-108620234D01*
X121031242Y-108620238D01*
X120891470Y-108707359D01*
X120824165Y-108726115D01*
X120757404Y-108705506D01*
X120749978Y-108700183D01*
X120707375Y-108667205D01*
X120707371Y-108667203D01*
X120641931Y-108635103D01*
X120533816Y-108582070D01*
X120533814Y-108582069D01*
X120533811Y-108582068D01*
X120533813Y-108582068D01*
X120346682Y-108533616D01*
X120346676Y-108533615D01*
X120217964Y-108527087D01*
X120153610Y-108523824D01*
X120153609Y-108523824D01*
X120153607Y-108523824D01*
X119962533Y-108553095D01*
X119962521Y-108553098D01*
X119781251Y-108620234D01*
X119781242Y-108620238D01*
X119641470Y-108707359D01*
X119574165Y-108726115D01*
X119507404Y-108705506D01*
X119499978Y-108700183D01*
X119457375Y-108667205D01*
X119457371Y-108667203D01*
X119391931Y-108635103D01*
X119283816Y-108582070D01*
X119283814Y-108582069D01*
X119283811Y-108582068D01*
X119283813Y-108582068D01*
X119096682Y-108533616D01*
X119096676Y-108533615D01*
X118967964Y-108527087D01*
X118903610Y-108523824D01*
X118903609Y-108523824D01*
X118903607Y-108523824D01*
X118712533Y-108553095D01*
X118712521Y-108553098D01*
X118531251Y-108620234D01*
X118531242Y-108620238D01*
X118391470Y-108707359D01*
X118324165Y-108726115D01*
X118257404Y-108705506D01*
X118249978Y-108700183D01*
X118207375Y-108667205D01*
X118207371Y-108667203D01*
X118141931Y-108635103D01*
X118033816Y-108582070D01*
X118033814Y-108582069D01*
X118033811Y-108582068D01*
X118033813Y-108582068D01*
X117846682Y-108533616D01*
X117846676Y-108533615D01*
X117717964Y-108527087D01*
X117653610Y-108523824D01*
X117653609Y-108523824D01*
X117653607Y-108523824D01*
X117462533Y-108553095D01*
X117462521Y-108553098D01*
X117281251Y-108620234D01*
X117281249Y-108620235D01*
X117281247Y-108620235D01*
X117281247Y-108620236D01*
X117276729Y-108623052D01*
X117141017Y-108707641D01*
X117073711Y-108726396D01*
X117006950Y-108705786D01*
X116999525Y-108700465D01*
X116957104Y-108667629D01*
X116783642Y-108582542D01*
X116783643Y-108582542D01*
X116702000Y-108561403D01*
X116702000Y-109557027D01*
X116695552Y-109544078D01*
X116612666Y-109468516D01*
X116508080Y-109428000D01*
X116424198Y-109428000D01*
X116341750Y-109443412D01*
X116246390Y-109502457D01*
X116178799Y-109591962D01*
X116148105Y-109699840D01*
X113284500Y-109699840D01*
X113284500Y-109381393D01*
X115501999Y-109381393D01*
X115502000Y-109478000D01*
X116202000Y-109478000D01*
X116202000Y-108557528D01*
X116031472Y-108620685D01*
X116031468Y-108620687D01*
X115867496Y-108722892D01*
X115727465Y-108856002D01*
X115727464Y-108856003D01*
X115617086Y-109014586D01*
X115540893Y-109192137D01*
X115501999Y-109381393D01*
X113284500Y-109381393D01*
X113284500Y-103632002D01*
X113798751Y-103632002D01*
X113817685Y-103800056D01*
X113873545Y-103959694D01*
X113873547Y-103959697D01*
X113963518Y-104102884D01*
X113963523Y-104102890D01*
X114083109Y-104222476D01*
X114083115Y-104222481D01*
X114226302Y-104312452D01*
X114226305Y-104312454D01*
X114226309Y-104312455D01*
X114226310Y-104312456D01*
X114298913Y-104337860D01*
X114385943Y-104368314D01*
X114553997Y-104387249D01*
X114554000Y-104387249D01*
X114554003Y-104387249D01*
X114722056Y-104368314D01*
X114722059Y-104368313D01*
X114881690Y-104312456D01*
X114881692Y-104312454D01*
X114881694Y-104312454D01*
X114881697Y-104312452D01*
X115024884Y-104222481D01*
X115024885Y-104222480D01*
X115024890Y-104222477D01*
X115028548Y-104218818D01*
X115089871Y-104185334D01*
X115116229Y-104182500D01*
X117083177Y-104182500D01*
X117130629Y-104191938D01*
X117191238Y-104217044D01*
X117269619Y-104227363D01*
X117347999Y-104237682D01*
X117348000Y-104237682D01*
X117348001Y-104237682D01*
X117400254Y-104230802D01*
X117504762Y-104217044D01*
X117650841Y-104156536D01*
X117776282Y-104060282D01*
X117872536Y-103934841D01*
X117933044Y-103788762D01*
X117953682Y-103632000D01*
X117933044Y-103475238D01*
X117872536Y-103329159D01*
X117776282Y-103203718D01*
X117650841Y-103107464D01*
X117588158Y-103081500D01*
X117504762Y-103046956D01*
X117504760Y-103046955D01*
X117348001Y-103026318D01*
X117347999Y-103026318D01*
X117191239Y-103046955D01*
X117191237Y-103046956D01*
X117130630Y-103072061D01*
X117083177Y-103081500D01*
X115116229Y-103081500D01*
X115049190Y-103061815D01*
X115028548Y-103045181D01*
X115024890Y-103041523D01*
X115024884Y-103041518D01*
X114881697Y-102951547D01*
X114881694Y-102951545D01*
X114722056Y-102895685D01*
X114554003Y-102876751D01*
X114553997Y-102876751D01*
X114385943Y-102895685D01*
X114226305Y-102951545D01*
X114226302Y-102951547D01*
X114083115Y-103041518D01*
X114083109Y-103041523D01*
X113963523Y-103161109D01*
X113963518Y-103161115D01*
X113873547Y-103304302D01*
X113873545Y-103304305D01*
X113817685Y-103463943D01*
X113798751Y-103631997D01*
X113798751Y-103632002D01*
X113284500Y-103632002D01*
X113284500Y-100584001D01*
X119536318Y-100584001D01*
X119556955Y-100740760D01*
X119556956Y-100740762D01*
X119617464Y-100886841D01*
X119713718Y-101012282D01*
X119839159Y-101108536D01*
X119985238Y-101169044D01*
X120063619Y-101179363D01*
X120141999Y-101189682D01*
X120142000Y-101189682D01*
X120142001Y-101189682D01*
X120194254Y-101182802D01*
X120298762Y-101169044D01*
X120359370Y-101143938D01*
X120406823Y-101134500D01*
X121655177Y-101134500D01*
X121702629Y-101143938D01*
X121763238Y-101169044D01*
X121841619Y-101179363D01*
X121919999Y-101189682D01*
X121920000Y-101189682D01*
X121920001Y-101189682D01*
X121972253Y-101182802D01*
X122076762Y-101169044D01*
X122222841Y-101108536D01*
X122348282Y-101012282D01*
X122444536Y-100886841D01*
X122505044Y-100740762D01*
X122525682Y-100584000D01*
X122505044Y-100427238D01*
X122444536Y-100281159D01*
X122348282Y-100155718D01*
X122222841Y-100059464D01*
X122160158Y-100033500D01*
X122076762Y-99998956D01*
X122076760Y-99998955D01*
X121920001Y-99978318D01*
X121919999Y-99978318D01*
X121763239Y-99998955D01*
X121763237Y-99998956D01*
X121702630Y-100024061D01*
X121655177Y-100033500D01*
X120406823Y-100033500D01*
X120359370Y-100024061D01*
X120298762Y-99998956D01*
X120298760Y-99998955D01*
X120142001Y-99978318D01*
X120141999Y-99978318D01*
X119985239Y-99998955D01*
X119985237Y-99998956D01*
X119839160Y-100059463D01*
X119713718Y-100155718D01*
X119617463Y-100281160D01*
X119556956Y-100427237D01*
X119556955Y-100427239D01*
X119536318Y-100583998D01*
X119536318Y-100584001D01*
X113284500Y-100584001D01*
X113284500Y-95545180D01*
X113304185Y-95478141D01*
X113356989Y-95432386D01*
X113426147Y-95422442D01*
X113481383Y-95444860D01*
X113527190Y-95478141D01*
X113593270Y-95526151D01*
X113766192Y-95603142D01*
X113766197Y-95603144D01*
X113951354Y-95642500D01*
X113951355Y-95642500D01*
X114140644Y-95642500D01*
X114140646Y-95642500D01*
X114325803Y-95603144D01*
X114498730Y-95526151D01*
X114651871Y-95414888D01*
X114778533Y-95274216D01*
X114827613Y-95189205D01*
X114878179Y-95140991D01*
X114946786Y-95127767D01*
X115011651Y-95153735D01*
X115042385Y-95189203D01*
X115091466Y-95274214D01*
X115091467Y-95274216D01*
X115218129Y-95414888D01*
X115371265Y-95526148D01*
X115371270Y-95526151D01*
X115544192Y-95603142D01*
X115544197Y-95603144D01*
X115729354Y-95642500D01*
X115729355Y-95642500D01*
X115918644Y-95642500D01*
X115918646Y-95642500D01*
X116103803Y-95603144D01*
X116276730Y-95526151D01*
X116429871Y-95414888D01*
X116556533Y-95274216D01*
X116651179Y-95110284D01*
X116709674Y-94930256D01*
X116729460Y-94742000D01*
X116709674Y-94553744D01*
X116651179Y-94373716D01*
X116556533Y-94209784D01*
X116535993Y-94186972D01*
X116505763Y-94123980D01*
X116514388Y-94054645D01*
X116559130Y-94000980D01*
X116625782Y-93980022D01*
X116628143Y-93980000D01*
X127973857Y-93980000D01*
X128040896Y-93999685D01*
G37*
%TD.AperFunction*%
%TD*%
M02*
